# xmcd
#
# Track frame offsets:
#	183
#	13833
#	24348
#	38808
#	56160
#	68635
#	80068
#	98780
#	113080
#	122988
#	132978
#	142130
#	156500
#	170955
#	177398
#	186215
#
# Disc length: 2627 seconds
#
# Revision: 4
# Processed by: cddbd v1.5.2PL0 Copyright (c) Steve Scherf et al.
# Submitted via: audiograbber 1.83.01
#
DISCID=ee0a4110
DTITLE=Various Artist - Christmas Gala - Country Stars
DYEAR=1991
DGENRE=Country
TTITLE0=Anne Murray - The Christmas Song
TTITLE1=Eddy Arnold - Christmas Can't Be Far Away
TTITLE2=Jim Reeves - White Christmas
TTITLE3=Kenny Rogers - When A Child Is Born
TTITLE4=Chet Atkins - Winter Wonderland
TTITLE5=Floyd Cramer - I'll Be Home For Christmas
TTITLE6=Alabama - Santa Claus (I Still Believe In You)
TTITLE7=Glen Campbell - Have Yourself A Merry Little Christmas
TTITLE8=Porter Wagoner - Frosty Yhe Snowman
TTITLE9=Ferlin Husky - Rudolph The Red-Nosed Reindeer
TTITLE10=Charley Pride and The Nashville Edition - Little Drummer Boy
TTITLE11=Hank Snow - C-H-R-I-S-T-M-A-S
TTITLE12=Jim Reeves - Silent Night
TTITLE13=Tennessee Ernie Ford - Hark The Herald Angels Sing
TTITLE14=Roy Rogers - Sleigh Ride - Jingle Bells
TTITLE15=Skeeter Davis - Christmas Time's A-Coming
EXTD=
EXTT0=Performed by Anne Murray\n(1988)
EXTT1=Performed by Eddy Arnold\n(1962)
EXTT2=Performed by Jim Reeves\n(1964)
EXTT3=Performed by Kenny Rogers\n(1987)
EXTT4=Performed by Chet Atkins\n(1961)
EXTT5=Performed by Floyd Cramer\n(1967)
EXTT6=Performed by Alabama\n(1962)
EXTT7=Performed by Glenn Campbell\n(1947)
EXTT8=Performed by Porter Wagoner\n(1973)
EXTT9=Performed by Ferlin Husky\n(1967)
EXTT10=Performed by Charley Prode and The\nNashville Edition\n(1970)
EXTT11=Perfomed by Hank Snow\n(1967)
EXTT12=Performed by Jim Reeves\n(1964)
EXTT13=Performed by Tennessee Ernie Ford\n(1948)
EXTT14=Performed by Roy Rogers\n(1967)
EXTT15=Performed by Skeeter Davis\n(1973)
PLAYORDER=
